# xmcd
#
# Track frame offsets: 
#        150
#        12291
#        24386
#        38495
#        52850
#        69190
#        85476
#        98281
#        111054
#        125801
#        143647
#        153752
#        166049
#        179271
#        189648
#        205707
#        221790
#        236224
#        250691
#        264402
#        280867
#        292742
#
# Disc length: 4086 seconds
#
# Revision: 0
# Processed by: cddbd v1.5.2PL0 Copyright (c) Steve Scherf et al.
# Submitted via: ExactAudioCopy v0.95b3
#
DISCID=1e0ff416
DTITLE=The Malcolm Wilce Duo - For The Good Times
DYEAR=2006
DGENRE=Sequence Dance
TTITLE0=On Top Of The World - Snowbird
TTITLE1=All I Ever Need Is You - Jambalaya
TTITLE2=Crazy - Stand By Your Man
TTITLE3=Black Hills Of Dakota - Secret Love
TTITLE4=I Wont Forget You - When Two Worlds Collide
TTITLE5=There Goes My Everything - Vaya Con Dios
TTITLE6=Chirpy Cheep Cheep
TTITLE7=Put Your Hand In The Hand - Sweet Gingerbread Man
TTITLE8=If I Said You Had A Beautiful Body
TTITLE9=For The Good Times
TTITLE10=Walk Right In - My Boy Lollipop
TTITLE11=You're Sixteen - Living Doll
TTITLE12=Turkey In The Straw - Polly Wolly Doodle
TTITLE13=Yellow Rose Of Texas - Deep In The Heart Of Texas
TTITLE14=Blueberry Hill - Birth Of The Blues
TTITLE15=Oldest Swinger In Town - Shaddup You Face
TTITLE16=Guitar Tango
TTITLE17=They Call The Wind Maria
TTITLE18=Who's Sorry Now - Crystal Chandeliers
TTITLE19=Love Letters In The Sand - April Love
TTITLE20=Making Your Mind Up
TTITLE21=Mississippi
EXTD=
EXTT0=
EXTT1=
EXTT2=
EXTT3=
EXTT4=
EXTT5=
EXTT6=
EXTT7=
EXTT8=
EXTT9=
EXTT10=
EXTT11=
EXTT12=
EXTT13=
EXTT14=
EXTT15=
EXTT16=
EXTT17=
EXTT18=
EXTT19=
EXTT20=
EXTT21=
PLAYORDER=
